<svg id="Layer_1" height="512" viewBox="0 0 512 512" width="512" xmlns="http://www.w3.org/2000/svg" data-name="Layer 1"><path d="m475.915 450.609a10.051 10.051 0 0 0 20.086 0v-47.993h-20.086z"/><path d="m94.655 159.168a6.852 6.852 0 0 0 -6.219-3.99h-41.344a6.849 6.849 0 0 0 -6.217 3.988l-24.256 53.042a6.814 6.814 0 0 0 6.216 9.64h14.265v17.842a10.984 10.984 0 0 0 -5.146 9.274 11.147 11.147 0 0 0 22.293 0 10.985 10.985 0 0 0 -5.147-9.274v-17.842h12.664v233.9h-13.879a6 6 0 1 0 0 12h39.759a6 6 0 0 0 0-12h-13.88v-233.9h38.929a6.814 6.814 0 0 0 6.217-9.64z"/><path d="m227.167 244.211a13.713 13.713 0 0 0 -13.932 13.449v23.068h76.389v-23.068a13.713 13.713 0 0 0 -13.933-13.449z"/><path d="m341.872 244.211a13.713 13.713 0 0 0 -13.933 13.449v23.068h76.389v-23.068a13.713 13.713 0 0 0 -13.928-13.449z"/><path d="m121.561 450.753a9.9 9.9 0 0 0 19.791 0v-48.137h-19.791z"/><path d="m430.617 280.728v-81.519a14.017 14.017 0 0 0 -14-14h-215.671a14.016 14.016 0 0 0 -14 14v81.519h14.289v-23.068c0-14.033 11.633-25.449 25.932-25.449h48.524c14.3 0 25.933 11.416 25.933 25.449v23.068h14.315v-23.068c0-14.033 11.634-25.449 25.933-25.449h48.528c14.3 0 25.932 11.416 25.932 25.449v23.068z"/><path d="m482.069 292.728h-346.576a13.712 13.712 0 0 0 -13.932 13.449v54.594h374.439v-54.594a13.712 13.712 0 0 0 -13.931-13.449z"/><path d="m121.561 372.771h374.44v17.845h-374.44z"/><path d="m421.045 133.942v-89.694h-224.528v89.694h24.954l51.742-51.167a5.866 5.866 0 0 1 4.329-1.733 6 6 0 0 1 4.262 1.891l38.847 41.338 32.594-27.459a6 6 0 0 1 7.967.21l39.421 36.92zm-100.207-33.9c-11.239 0-20.382-9.765-20.382-21.768s9.143-21.769 20.382-21.769 20.382 9.766 20.382 21.769-9.143 21.768-20.382 21.768z"/><path d="m320.838 68.505c-4.622 0-8.382 4.382-8.382 9.769s3.76 9.768 8.382 9.768 8.382-4.381 8.382-9.768-3.76-9.769-8.382-9.769z"/><path d="m328.881 133.029.859.913h53.339l-26.179-24.518z"/><path d="m238.538 133.942h74.736l-35.999-38.307z"/></svg>