<svg id="_x33_0" enable-background="new 0 0 64 64" height="512" viewBox="0 0 64 64" width="512"  fill="#fff" xmlns="http://www.w3.org/2000/svg"><g><circle cx="42" cy="20" r="1"/><circle cx="48" cy="20" r="1"/><path d="m42.895 22.553-1.789.895.105.211c.722 1.444 2.174 2.341 3.789 2.341s3.067-.897 3.789-2.342l.105-.211-1.789-.895-.105.212c-.381.762-1.147 1.236-2 1.236s-1.619-.474-2-1.236z"/><path d="m57.978 32.368-.571-15.413c-.249-6.704-5.699-11.955-12.407-11.955s-12.158 5.251-12.406 11.955l-.523 14.112c-1.252-.768-2.661-1.273-4.126-1.456l-4.142-.518-.578-2.313c1.422-.89 2.547-2.209 3.185-3.78h.59c2.206 0 4-1.794 4-4 0-.901-.31-1.724-.814-2.393l.432-1.297c.253-.76.382-1.553.382-2.357 0-1.476-.433-2.904-1.251-4.133l-.798-1.196-.547-3.281c-.323-1.938-1.982-3.343-3.945-3.343h-10.918c-1.963 0-3.622 1.405-3.945 3.343l-.547 3.281-.798 1.196c-.818 1.229-1.251 2.658-1.251 4.133 0 .804.129 1.597.382 2.356l.432 1.298c-.504.669-.814 1.492-.814 2.393 0 2.206 1.794 4 4 4h.589c.638 1.571 1.763 2.891 3.185 3.78l-.578 2.313-4.142.518c-2.27.284-4.41 1.331-6.027 2.948-1.952 1.952-3.027 4.547-3.027 7.308v7.133c0 3.309 2.691 6 6 6v10h50v-6c3.309 0 6-2.691 6-6v-10.615c0-3.455-1.959-6.519-5.022-8.017zm-23.386-15.339c.209-5.624 4.78-10.029 10.408-10.029s10.199 4.405 10.408 10.029l.566 15.314-9.974 4.157v-6.57c3.94-.495 7-3.859 7-7.931v-6c0-3.859-3.141-7-7-7h-2c-3.859 0-7 3.141-7 7v6c0 4.072 3.06 7.436 7 7.931v6.57l-9.975-4.157zm4.408-.029h12v5c0 3.309-2.691 6-6 6s-6-2.691-6-6zm.101-2c.465-2.279 2.484-4 4.899-4h2c2.414 0 4.434 1.721 4.899 4zm-11.404 16.595c1.83.229 3.557 1.073 4.861 2.378 1.575 1.574 2.442 3.668 2.442 5.894v15.133h-6v-16h-2v16c0 1.103.897 2 2 2v2c0 .732.212 1.409.556 2h-9.556v-10.556c1.19-.694 2-1.97 2-3.444 0-1.519-.861-2.827-2.111-3.504l.974-2.918c.09-.278.137-.566.137-.857 0-.844-.395-1.59-1-2.09v-3.217l3.361-3.361zm3.303 27.405v-2h4v2c0 1.103-.897 2-2 2s-2-.897-2-2zm-15.962-19.049c-.025-.074-.038-.154-.038-.23 0-.398.323-.721.721-.721h2.559c.397 0 .72.323.72.721 0 .076-.013.156-.036.228l-1.018 3.051h-1.893zm.962 5.049h2c1.103 0 2 .897 2 2s-.897 2-2 2h-2zm11-24h-.069c.041-.328.069-.661.069-1v-3c1.103 0 2 .897 2 2s-.897 2-2 2zm.465-12 .62.93c.599.898.915 1.944.915 3.023 0 .588-.094 1.168-.28 1.724l-.208.624c-.467-.191-.977-.301-1.512-.301v-2h-2v1.747c-2.148-.594-3.943-2.013-5-3.99v-1.757zm-15.897-4.329c.161-.968.992-1.671 1.973-1.671h10.918c.981 0 1.812.703 1.973 1.671l.387 2.329h-15.638zm6.432 4.329v1.737c-1.057 1.984-2.847 3.413-5 4.008v-1.745h-2v2c-.536 0-1.045.11-1.512.301l-.208-.625c-.186-.555-.28-1.135-.28-1.723 0-1.079.316-2.125.915-3.023l.62-.93zm-7 12c-1.103 0-2-.897-2-2s.897-2 2-2v3c0 .339.028.672.069 1zm2-1v-3.192c2.447-.538 4.553-1.932 6-3.92 1.447 1.988 3.553 3.382 6 3.92v3.192c0 3.309-2.691 6-6 6s-6-2.691-6-6zm6 8c.828 0 1.628-.127 2.38-.362l.513 2.055-2.893 2.893-2.893-2.893.513-2.055c.752.235 1.552.362 2.38.362zm-16 19v-7.133c0-2.227.867-4.32 2.441-5.895 1.305-1.305 3.031-2.148 4.861-2.378l4.336-.542 3.362 3.362v2.586h-2.279c-1.5 0-2.721 1.221-2.721 2.721 0 .291.047.579.14.86l.806 2.419h-4.946v-4h-2v4.279l-2.316.772.633 1.896 2.845-.947h5.838v6h-7c-2.206 0-4-1.794-4-4zm6 6h5c1.103 0 2-.897 2-2h2v10h-9zm52-2c0 2.206-1.794 4-4 4h-10v-6h8.697l2.748 1.832 1.109-1.664-2.554-1.703v-4.465h-2v4h-8.946l.808-2.422c.091-.278.138-.566.138-.857 0-1.5-1.221-2.721-2.721-2.721h-2.559c-1.499 0-2.72 1.221-2.72 2.721 0 .291.047.579.14.86l1.162 3.485c-.795.732-1.302 1.771-1.302 2.934 0 2.206 1.794 4 4 4h2c0 1.103.897 2 2 2h8v4h-18.556c.344-.591.556-1.268.556-2v-19.133c0-1.61-.376-3.159-1.068-4.562l9.068 3.778 11.97-4.987c2.454 1.139 4.03 3.558 4.03 6.289zm-16 2h-2c-1.103 0-2-.897-2-2s.897-2 2-2h2zm-3.962-9.049c-.025-.074-.038-.154-.038-.23 0-.398.323-.721.721-.721h2.559c.397 0 .72.323.72.721 0 .076-.013.156-.036.228l-1.017 3.051h-.947c-.314 0-.615.045-.908.113z"/><circle cx="16" cy="18" r="1"/><circle cx="22" cy="18" r="1"/><path d="m22.789 21.658.105-.211-1.789-.895-.105.212c-.381.762-1.147 1.236-2 1.236s-1.619-.474-2-1.236l-.105-.211-1.789.895.105.211c.722 1.444 2.174 2.341 3.789 2.341s3.067-.897 3.789-2.342z"/></g></svg>