<svg id="Layer_1" enable-background="new 0 0 512 512" height="512" viewBox="0 0 512 512" width="512"  fill="#fff" xmlns="http://www.w3.org/2000/svg"><g id="XMLID_450_"><g id="XMLID_196_"><path id="XMLID_221_" d="m471.388 139.354c.4-3.648.612-7.351.612-11.104 0-55.83-45.421-101.25-101.25-101.25-39.277 0-73.401 22.48-90.184 55.25h-242.028c-2.641 0-5.174 1.044-7.048 2.906l-28.538 28.35c-3.839 3.813-3.947 9.99-.245 13.936l40.95 43.65c1.891 2.015 4.53 3.158 7.293 3.158h35.7c2.652 0 5.195-1.054 7.071-2.929l17.165-17.166 17.166 17.166c1.876 1.875 4.419 2.929 7.071 2.929h46.695c2.652 0 5.195-1.054 7.071-2.929l17.165-17.166 17.166 17.166c1.876 1.875 4.419 2.929 7.071 2.929h50.273c16.783 32.77 50.907 55.25 90.184 55.25 44.223 0 81.909-28.501 95.67-68.098 15.749 15.115 25.582 36.348 25.582 59.848v64.813c0 27.45-13.404 51.819-34 66.937v-29.874c0-27.57-22.43-50-50-50h-107c-5.522 0-10 4.477-10 10s4.478 10 10 10h107c16.542 0 30 13.458 30 30v40.698c-9.033 3.38-18.802 5.239-29 5.239-5.522 0-10 4.477-10 10s4.478 10 10 10c10.066 0 19.797-1.458 29-4.163v50.1c0 16.542-13.458 30-30 30h-304c-16.542 0-30-13.458-30-30v-111.873c0-16.542 13.458-30 30-30h107c5.522 0 10-4.477 10-10s-4.478-10-10-10h-107c-27.57 0-50 22.43-50 50v111.873c0 27.57 22.43 50 50 50h304c27.57 0 50-22.43 50-50v-58.357c32.135-17.454 54-51.511 54-90.58v-64.813c0-33.36-15.946-63.061-40.612-81.896zm-236.954 14.896-21.308-21.308c-1.876-1.875-4.419-2.929-7.071-2.929s-5.195 1.054-7.071 2.929l-21.308 21.308h-38.411l-21.308-21.308c-1.876-1.875-4.419-2.929-7.071-2.929s-5.195 1.054-7.071 2.929l-21.307 21.308h-27.228l-31.338-33.404 18.719-18.596h230.229c-2.207 8.301-3.39 17.014-3.39 26s1.183 17.699 3.39 26zm136.316 55.25c-44.802 0-81.25-36.449-81.25-81.25s36.448-81.25 81.25-81.25c44.604 0 80.915 36.131 81.235 80.66-6.918-3.19-14.246-5.637-21.884-7.233-3.583-16.091-17.962-28.161-35.117-28.161-19.842 0-35.984 16.142-35.984 35.984s16.143 35.984 35.984 35.984c15.487 0 28.719-9.835 33.782-23.587 7.292 1.789 14.207 4.542 20.605 8.119-9.114 34.9-40.905 60.734-78.621 60.734zm36.775-71.371c-2.929 3.711-7.456 6.105-12.54 6.105-8.813 0-15.984-7.17-15.984-15.984s7.171-15.984 15.984-15.984c5.084 0 9.611 2.394 12.54 6.105-4.821.715-8.525 4.859-8.525 9.879s3.703 9.164 8.525 9.879z"/><path id="XMLID_224_" d="m131.408 351.063c0 5.523 4.478 10 10 10h229.184c5.522 0 10-4.477 10-10s-4.478-10-10-10h-229.184c-5.522 0-10 4.477-10 10z"/><path id="XMLID_225_" d="m141.408 397.063c-5.522 0-10 4.477-10 10s4.478 10 10 10h81.092c5.522 0 10-4.477 10-10s-4.478-10-10-10z"/><path id="XMLID_226_" d="m370.592 397.063h-87.092c-5.522 0-10 4.477-10 10s4.478 10 10 10h87.092c5.522 0 10-4.477 10-10s-4.478-10-10-10z"/><path id="XMLID_249_" d="m263.069 290.07c1.86-1.86 2.931-4.44 2.931-7.07s-1.07-5.21-2.931-7.07c-1.859-1.86-4.439-2.93-7.069-2.93s-5.21 1.07-7.07 2.93-2.93 4.44-2.93 7.07 1.069 5.21 2.93 7.07 4.44 2.93 7.07 2.93 5.21-1.07 7.069-2.93z"/></g></g></svg>